Patient4_TMGait_0pt8_01_right_46_GRF.mot
version=1
nRows=26
nColumns=19
inDegrees=no
endheader
time	F1x	F1y	F1z	M1x	M1y	M1z	F2x	F2y	F2z	M2x	M2y	M2z	EC1x	EC1y	EC1z	EC2x	EC2y	EC2z
51.82	-16.2506	747.9959	58.1561	-281.0905	-69.6229	816.0424	23.7211	-2.2052	-3.6931	2.5926	-2.2445	-3.9796	-0.0592	0.0182	-0.0073	-0.0462	0.0165	0.9585
51.8309	-12.4841	743.0266	60.3175	-278.6903	-69.6728	811.4759	15.9745	-0.45157	-2.748	2.188	-1.2843	-1.4619	-0.0592	0.0182	-0.0073	-0.0462	0.0165	0.9585
51.8417	-8.886	737.2536	62.0693	-275.8637	-69.4087	805.0488	9.4477	1.1102	-1.8418	1.8473	-0.56467	0.79783	-0.0592	0.0182	-0.0073	-0.0462	0.0165	0.9585
51.8526	-5.5872	731.192	63.3773	-272.8381	-68.8682	797.2592	4.4573	2.4023	-1.0925	1.6037	-0.058824	2.6914	-0.0592	0.0182	-0.0073	-0.0462	0.0165	0.9585
51.8634	-2.5635	725.3765	64.263	-269.8536	-68.0704	788.759	1.0181	3.3775	-0.52812	1.4529	0.25453	4.1131	-0.0592	0.0182	-0.0073	-0.0462	0.0165	0.9585
51.8743	0.25415	720.238	64.8594	-267.1014	-67.1123	780.1718	-1.1305	4.0809	-0.14581	1.3831	0.43835	5.1384	-0.0592	0.0182	-0.0073	-0.0462	0.0165	0.9585
51.8851	2.9729	716.0648	65.2636	-264.7082	-66.0417	771.9875	-2.2782	4.5234	0.080298	1.3632	0.53484	5.7796	-0.0592	0.0182	-0.0073	-0.0462	0.0165	0.9585
51.896	5.6866	713.0002	65.5853	-262.7348	-64.9232	764.5126	-2.7498	4.7363	0.18271	1.3609	0.58642	6.0837	-0.0592	0.0182	-0.0073	-0.0462	0.0165	0.9585
51.9069	8.4974	711.082	65.9035	-261.1976	-63.7837	757.8984	-2.8051	4.6988	0.19461	1.3323	0.61968	6.0403	-0.0592	0.0182	-0.0073	-0.0462	0.0165	0.9585
51.9177	11.515	710.3105	66.2608	-260.0925	-62.6129	752.2186	-2.6453	4.3546	0.15339	1.2276	0.64736	5.5771	-0.0592	0.0182	-0.0073	-0.0462	0.0165	0.9585
51.9286	14.8106	710.6792	66.7225	-259.409	-61.4314	747.5064	-2.418	3.6307	0.07735	0.99586	0.69142	4.6184	-0.0592	0.0182	-0.0073	-0.0462	0.0165	0.9585
51.9394	18.4366	712.1998	67.3028	-259.1431	-60.2301	743.8083	-2.1698	2.4093	-0.0082255	0.58127	0.74364	3.0085	-0.0592	0.0182	-0.0073	-0.0462	0.0165	0.9585
51.9503	22.3713	714.859	68.0428	-259.29	-59.0536	741.1485	-1.9737	0.62555	-0.093357	-0.054272	0.8088	0.68644	-0.0592	0.0182	-0.0073	-0.0462	0.0165	0.9585
51.9611	26.563	718.6072	68.9303	-259.8455	-57.9081	739.5069	-1.7717	-1.788	-0.15879	-0.93471	0.83974	-2.428	-0.0592	0.0182	-0.0073	-0.0462	0.0165	0.9585
51.972	30.9529	723.3081	69.928	-260.7781	-56.7796	738.7674	-1.5755	-4.7245	-0.17984	-2.0251	0.79647	-6.1668	-0.0592	0.0182	-0.0073	-0.0462	0.0165	0.9585
51.9829	35.4697	728.718	70.9905	-262.0168	-55.6482	738.6949	-1.2597	-7.9425	-0.11547	-3.2258	0.59229	-10.252	-0.0592	0.0182	-0.0073	-0.0462	0.0165	0.9585
51.9937	40.1069	734.4642	72.0406	-263.4374	-54.4439	738.9064	-0.80081	-10.848	0.072771	-4.3075	0.16551	-13.9085	-0.0592	0.0182	-0.0073	-0.0462	0.0165	0.9585
52.0046	44.8506	740.052	73.0247	-264.8592	-53.114	738.9075	-0.065572	-12.4915	0.42069	-4.8916	-0.56512	-15.9615	-0.0592	0.0182	-0.0073	-0.0462	0.0165	0.9585
52.0154	49.7594	744.8896	73.8658	-266.0611	-51.566	738.1041	0.94983	-11.3461	0.95219	-4.3852	-1.6328	-14.458	-0.0592	0.0182	-0.0073	-0.0462	0.0165	0.9585
52.0263	54.833	748.2743	74.479	-266.7824	-49.7187	735.8393	2.3146	-5.3787	1.6631	-1.9929	-3.0424	-6.8694	-0.0592	0.0182	-0.0073	-0.0462	0.0165	0.9585
52.0371	60.0876	749.3875	74.7704	-266.7269	-47.4896	731.3251	3.9038	8.012	2.521	3.2865	-4.7005	10.0843	-0.0592	0.0182	-0.0073	-0.0462	0.0165	0.9585
52.048	65.4283	747.3075	74.6185	-265.5669	-44.8095	723.7599	5.5581	31.6557	3.4118	12.54	-6.3826	39.959	-0.0592	0.0182	-0.0073	-0.0462	0.0165	0.9585
52.0589	70.6932	740.9673	73.906	-262.9332	-41.646	712.2195	6.8556	68.1817	4.1479	26.759	-7.6669	86.0932	-0.0592	0.0182	-0.0073	-0.0462	0.0165	0.9585
52.0697	75.572	729.1249	72.4517	-258.4007	-37.9689	695.6981	7.1776	119.0872	4.3987	46.4866	-7.8716	150.3698	-0.0592	0.0182	-0.0073	-0.0462	0.0165	0.9585
52.0806	79.6834	710.3038	70.0802	-251.4697	-33.7861	672.964	5.3808	183.6166	3.7213	71.3727	-5.9975	231.8333	-0.0592	0.0182	-0.0073	-0.0462	0.0165	0.9585
52.0914	82.5258	682.9784	66.6013	-241.6192	-29.1342	642.7951	-0.093361	257.3911	1.6215	99.6557	-0.83617	324.9412	-0.0592	0.0182	-0.0073	-0.0462	0.0165	0.9585
